<svg xmlns="http://www.w3.org/2000/svg" width="40" height="40" viewBox="0 0 40 40">
  <g fill="none" fill-rule="evenodd" transform="translate(1 1)">
    <path stroke="#4E4E4E" stroke-width="2" d="M7,21 L7,9 L1.891,12.406 C1.334,12.777 1,13.402 1,14.07 L1,35 C1,36.104 1.896,37 3,37 L35,37 C36.104,37 37,36.104 37,35 L37,14.07 C37,13.402 36.666,12.777 36.109,12.406 L31,9 L31,21"/>
    <path fill="#4E4E4E" d="M19.9712,25.3164 C19.3642,25.6544 18.6362,25.6544 18.0292,25.3164 L8.0002,19.7454 L8.0002,22.0324 L17.0572,27.0644 C17.6652,27.4024 18.3332,27.5714 19.0002,27.5714 C19.6672,27.5714 20.3342,27.4024 20.9432,27.0644 L30.0002,22.0324 L30.0002,19.7454 L19.9712,25.3164 Z"/>
    <polygon fill="#4E4E4E" points="1.486 16.126 .514 17.874 6 20.922 6 18.634"/>
    <polygon fill="#4E4E4E" points="37.486 17.874 36.514 16.126 32 18.634 32 20.922"/>
    <path fill="#4E4E4E" d="M8,3 C8,2.449 8.449,2 9,2 L29,2 C29.551,2 30,2.449 30,3 L30,19.745 L32,18.634 L32,3 C32,1.346 30.654,0 29,0 L9,0 C7.346,0 6,1.346 6,3 L6,18.634 L8,19.745 L8,3 Z"/>
    <polygon fill="#4E4E4E" points="30 22.033 32 20.922 32 18.634 30 19.745"/>
    <polygon fill="#4E4E4E" points="8 19.745 6 18.634 6 20.922 8 22.033"/>
    <path fill="#4E4E4E" d="M26 11L12 11C11.448 11 11 10.552 11 10 11 9.448 11.448 9 12 9L26 9C26.552 9 27 9.448 27 10 27 10.552 26.552 11 26 11M19 16L12 16C11.448 16 11 15.552 11 15 11 14.448 11.448 14 12 14L19 14C19.552 14 20 14.448 20 15 20 15.552 19.552 16 19 16"/>
  </g>
</svg>
