<svg xmlns="http://www.w3.org/2000/svg" width="40" height="40" viewBox="0 0 40 40">
  <g fill="none" fill-rule="evenodd" transform="translate(1 1)">
    <rect width="36" height="36" x="1" y="1" stroke="#4E4E4E" stroke-width="2" rx="4"/>
    <circle cx="11.5" cy="6.5" r="1.5" fill="#4E4E4E"/>
    <circle cx="16.5" cy="6.5" r="1.5" fill="#4E4E4E"/>
    <circle cx="6.5" cy="6.5" r="1.5" fill="#4E4E4E"/>
    <path fill="#4E4E4E" d="M14.5,16 C12.57,16 11,17.57 11,19.5 C11,20.403 11.35,21.265 11.984,21.923 L18.645,28.845 C18.712,28.915 18.83,29 19,29 C19.17,29 19.288,28.915 19.356,28.844 L26.015,21.924 C26.65,21.265 27,20.403 27,19.5 C27,17.57 25.43,16 23.5,16 C21.171,16 19.905,18.427 19.893,18.451 C19.722,18.785 19.377,18.998 19.001,18.998 L18.997,18.998 C18.619,18.996 18.274,18.784 18.105,18.447 C18.095,18.427 16.829,16 14.5,16 M19,31 C18.32,31 17.683,30.728 17.204,30.232 L10.544,23.311 C9.549,22.277 9,20.924 9,19.5 C9,16.468 11.468,14 14.5,14 C16.65,14 18.14,15.232 19,16.246 C19.86,15.232 21.35,14 23.5,14 C26.532,14 29,16.468 29,19.5 C29,20.924 28.451,22.277 27.455,23.312 L20.797,30.231 C20.317,30.728 19.68,31 19,31"/>
  </g>
</svg>
