<svg xmlns="http://www.w3.org/2000/svg" width="56" height="40" viewBox="0 0 56 40">
  <g fill="#4E4E4E" fill-rule="evenodd">
    <path fill-rule="nonzero" d="M18,12.5741255 L16.3245191,11.6165026 L14.9821158,10.8498258 C14.0601252,10.3232562 12.9284748,10.3232562 12.0064842,10.8498258 L10.6643614,11.6163424 L8.33092065,12.9505943 L6.98945116,13.7167376 C6.68206376,13.8922935 6.30476869,13.8922586 5.99741371,13.716646 L4.65639886,12.950434 L2.32483974,11.616686 C1.84544885,11.3424547 1.23451733,11.5087694 0.960286008,11.9881603 C0.686054684,12.4675512 0.852369373,13.0784827 1.33176026,13.352714 L3.66376026,14.686714 L5.00521599,15.4531781 C5.92728095,15.9800159 7.05916615,15.9801204 7.98132834,15.4534528 L9.32323859,14.6870576 L11.6566794,13.3528057 L12.9983614,12.586541 C13.3056916,12.4110178 13.6829084,12.4110178 13.9902386,12.586541 L15.3323614,13.3530576 L17.6660809,14.6868974 L18,14.8776061 L18,12.5741255 Z M20,13.7166526 L20.9922386,14.2833424 C21.4718192,14.5572417 21.6385569,15.1680579 21.3646576,15.6476386 C21.0907583,16.1272192 20.4799421,16.2939569 20.0003614,16.0200576 L20,16.0198512 L20,13.7166526 Z M18,19.5741255 L16.3245191,18.6165026 L14.9821158,17.8498258 C14.0601252,17.3232562 12.9284748,17.3232562 12.0064842,17.8498258 L10.6643614,18.6163424 L8.33092065,19.9505943 L6.98945116,20.7167376 C6.68206376,20.8922935 6.30476869,20.8922586 5.99741371,20.716646 L4.65639886,19.950434 L2.32483974,18.616686 C1.84544885,18.3424547 1.23451733,18.5087694 0.960286008,18.9881603 C0.686054684,19.4675512 0.852369373,20.0784827 1.33176026,20.352714 L3.66376026,21.686714 L5.00521599,22.4531781 C5.92728095,22.9800159 7.05916615,22.9801204 7.98132834,22.4534528 L9.32323859,21.6870576 L11.6566794,20.3528057 L12.9983614,19.586541 C13.3056916,19.4110178 13.6829084,19.4110178 13.9902386,19.586541 L15.3323614,20.3530576 L17.6660809,21.6868974 L18,21.8776061 L18,19.5741255 Z M20,20.7166526 L20.9922386,21.2833424 C21.4718192,21.5572417 21.6385569,22.1680579 21.3646576,22.6476386 C21.0907583,23.1272192 20.4799421,23.2939569 20.0003614,23.0200576 L20,23.0198512 L20,20.7166526 Z M18,26.5741255 L16.3245191,25.6165026 L14.9821158,24.8498258 C14.0601252,24.3232562 12.9284748,24.3232562 12.0064842,24.8498258 L10.6643614,25.6163424 L8.33092065,26.9505943 L6.98945116,27.7167376 C6.68206376,27.8922935 6.30476869,27.8922586 5.99741371,27.716646 L4.65639886,26.950434 L2.32483974,25.616686 C1.84544885,25.3424547 1.23451733,25.5087694 0.960286008,25.9881603 C0.686054684,26.4675512 0.852369373,27.0784827 1.33176026,27.352714 L3.66376026,28.686714 L5.00521599,29.4531781 C5.92728095,29.9800159 7.05916615,29.9801204 7.98132834,29.4534528 L9.32323859,28.6870576 L11.6566794,27.3528057 L12.9983614,26.586541 C13.3056916,26.4110178 13.6829084,26.4110178 13.9902386,26.586541 L15.3323614,27.3530576 L17.6660809,28.6868974 L18,28.8776061 L18,26.5741255 Z M20,27.7166526 L20.9922386,28.2833424 C21.4718192,28.5572417 21.6385569,29.1680579 21.3646576,29.6476386 C21.0907583,30.1272192 20.4799421,30.2939569 20.0003614,30.0200576 L20,30.0198512 L20,27.7166526 Z"/>
    <path fill-rule="nonzero" d="M24,5 C22.8954305,5 22,5.8954305 22,7 L22,33 C22,34.1045695 22.8954305,35 24,35 L52,35 C53.1045695,35 54,34.1045695 54,33 L54,7 C54,5.8954305 53.1045695,5 52,5 L24,5 Z M24,3 L52,3 C54.209139,3 56,4.790861 56,7 L56,33 C56,35.209139 54.209139,37 52,37 L24,37 C21.790861,37 20,35.209139 20,33 L20,7 C20,4.790861 21.790861,3 24,3 Z"/>
    <rect width="12" height="2" x="34" y="27" rx="1"/>
    <rect width="16" height="2" x="34" y="22" rx="1"/>
    <path fill-rule="nonzero" d="M42,11 L42,16 L48,16 L48,11 L42,11 Z M40,9 L50,9 L50,18 L40,18 L40,9 Z"/>
  </g>
</svg>
